<?xml version="1.0" encoding="UTF-8"?>
<svg width="80px" height="80px" viewBox="0 0 80 80" version="1.1" xmlns="http://www.w3.org/2000/svg" xmlns:xlink="http://www.w3.org/1999/xlink">
    <title>Default_player@2x</title>
    <defs>
        <circle id="path-1" cx="40" cy="40" r="40"></circle>
    </defs>
    <g id="Page-1" stroke="none" stroke-width="1" fill="none" fill-rule="evenodd">
        <g id="Ficha-de-jugador-2-MOB-v5" transform="translate(-56.000000, -346.000000)">
            <g id="Group-9" transform="translate(50.000000, 340.000000)">
                <g id="Default_player" transform="translate(6.000000, 6.000000)">
                    <mask id="mask-2" fill="white">
                        <use xlink:href="#path-1"></use>
                    </mask>
                    <use id="Mask" fill="#FFFFFF" xlink:href="#path-1"></use>
                    <path d="M23.801307,63.1072151 C24.424926,62.890089 24.8841051,63.0110948 25.4222153,63.3946427 C29.8974884,66.584654 34.4084685,69.7255163 38.8824887,72.9170829 C39.7018696,73.5012702 40.350233,73.495982 41.1605305,72.9096172 C45.5117689,69.7609782 49.8955821,66.6568219 54.2508923,63.5144042 C54.7570542,63.1492094 55.1889832,63.0698868 55.795062,63.2540396 C60.4660969,64.6750022 65.0663444,66.2757626 69.427919,68.4840405 C70.5683494,69.0613843 71.6664952,69.7261384 72.754618,70.3977361 C74.5831906,71.526605 75.7834458,73.0495982 76.2326018,75.2373456 C77.4062334,80.9569688 78.7095377,86.6498402 79.9561493,92.3545321 C79.9949885,92.5309081 79.9824597,92.7181716 80,93 L80,93 L43.8416852,93 L2.2274086,92.9788473 L-1,92.9788473 C-0.586550917,90.8374492 -0.237624949,88.7591981 0.222180546,86.7055215 C1.11830011,82.7048648 2.11934804,78.7272272 2.98759111,74.7209712 C3.34246824,73.0835047 4.24767116,71.914819 5.5406392,70.9561047 C8.30009861,68.9092716 11.4031593,67.4942193 14.5901626,66.2860278 C17.625568,65.1356952 20.7333269,64.1741813 23.801307,63.1072151 Z M17.4572002,58.1058098 C17.963228,57.9155512 18.3497098,57.9756665 18.7773517,58.3366783 C19.481614,58.932076 20.2406557,59.4555271 21,60.026303 C17.8733415,61.247156 14.8211345,62.3704815 11.8206803,63.6300257 C8.92373173,64.8460823 6.12211739,66.2843738 3.62587508,68.3027143 C1.96675768,69.6444375 0.786429718,71.2787433 0.340931576,73.5167606 C-0.877227408,79.637973 -2.18315437,85.7396799 -3.43218347,91.8538575 C-3.67097289,93.0238683 -4.31107383,93.332439 -5.25442825,92.6203281 C-6.10910675,91.9750475 -6.09125051,91.0793929 -5.8739491,90.1197858 L-5.8739491,90.1197858 L-4.76130085,85.2318971 C-4.39294016,83.601988 -4.03142689,81.9704801 -3.68973708,80.3344156 C-3.16948484,77.8415476 -2.71006488,75.3317322 -2.30602954,72.8145623 C-1.83117452,69.857719 -0.23652118,67.6855728 1.88383207,65.8677233 C5.24292439,62.9879428 9.16191586,61.2222146 13.168978,59.652181 C14.5844636,59.0973932 16.0344511,58.6407724 17.4572002,58.1058098 Z M60.7180341,59.0862585 C60.8824538,58.9748958 61.1905472,58.9820905 61.3973878,59.0471564 C66.0129056,60.5001902 70.5240743,62.2044159 74.6345667,64.833015 C75.3913308,65.3169425 76.1227042,65.8496694 76.8206364,66.4161806 C79.2376989,68.3787928 80.7880744,70.7790358 81.3726778,73.9804024 C82.3697238,79.4412443 83.6891067,84.8426511 84.8939222,90.264391 C85.2874767,92.034621 84.5833516,93.0540908 82.8248969,92.9977838 C82.5056564,91.3498651 82.2167608,89.6678495 81.8501451,88.0033516 C80.797054,83.2191322 79.7003034,78.4446102 78.6472123,73.660078 C78.2818352,71.9987083 77.4043109,70.6861292 76.1632673,69.5850142 C73.8310467,67.5154186 71.1130126,66.080841 68.2766954,64.9071526 C65.1904975,63.6305474 62.0340109,62.528494 58.9072499,61.3519902 C58.6552017,61.2572067 58.3978895,61.1768128 58,61.0410504 C58.9667011,60.3381511 59.8271952,59.6893692 60.7180341,59.0862585 Z M25.2173701,73.7787436 C21.826148,72.913039 21.6657799,72.96281 19.2151544,75.4703361 C19.1500048,75.5369049 19.092999,75.6134278 19.0209586,75.6715977 C17.8250885,76.6365333 17.4877516,77.7489156 18.3425262,79.128506 C18.5999923,79.544094 18.665455,80.0766439 18.9229211,80.4919209 C19.0908064,80.7625508 19.4278301,81.0605547 19.7225692,81.1003716 C21.1129483,81.287635 22.5152298,81.3899767 23.912813,81.522492 L23.912813,81.522492 L24.0061522,81.6920245 C24.4170956,81.486097 24.8787804,81.3420721 25.2292724,81.061488 C26.1031535,80.3609609 26.8899596,79.5515597 27.7823205,78.8774734 C28.3739912,78.4307785 28.6355291,78.0164348 28.4216005,77.2549382 C28.3502761,77.0012838 28.31416,76.7234295 28.2865657,76.4423139 L28.2482297,76.020812 C28.1967412,75.4625277 28.1259665,74.9330758 27.8224126,74.5999655 C27.2936989,74.0201331 26.1175615,74.0086235 25.2173701,73.7787436 Z M54.0916959,4 C54.4773372,4.40775847 54.8629786,4.73203392 55.1374383,5.11829863 C57.3788595,8.27102855 57.4624045,9.8017582 55.7984924,13.146686 C55.416663,13.9145428 55.3274,14.5300743 55.7467135,15.2913896 C57.0640567,17.6831157 57.191439,20.2782539 57.2498888,22.8737035 C57.2832433,24.348051 57.3045266,25.8236444 57.2791137,27.2979919 C57.2702192,27.8278599 57.4427095,28.2203546 57.8677409,28.5841911 C58.2857837,28.9421089 58.6491887,29.3523594 59.0202176,29.7517073 C59.9239652,30.7254682 60.196519,31.816043 59.8626565,33.0548936 C59.2336863,35.388057 58.0913747,37.4882156 56.2864208,39.2762474 C55.4824189,40.0727626 54.9153927,40.9505803 54.4452534,41.9361783 C53.3445555,44.2456674 52.1126633,46.5056275 50.949386,48.7920653 C50.6015464,49.4764392 50.2533892,50.1673546 49.9973538,50.8813213 C49.4967189,52.2777928 49.7359182,53.5826822 50.8080266,54.7280817 C51.3048495,55.2585726 51.8264501,55.7713079 52.345827,56.2849776 C52.3578981,56.2971263 52.3671103,56.3086519 52.3782285,56.3204891 C54.0097391,56.7939748 55.6749219,57.178059 57.5002062,57.6490528 C56.7368651,58.1882658 56.1253663,58.6203216 55.5145028,59.0520659 C50.4913178,62.5994711 45.4643209,66.1412693 40.4522541,69.7033152 C39.9827501,70.0369357 39.6555585,70.1325674 39.12824,69.7628124 C33.4471777,65.7805479 27.7451496,61.8266302 22.0504277,57.8627444 C21.9278103,57.7773923 21.8217113,57.668989 21.604113,57.4823982 C22.8928667,57.1394326 24.0685327,56.8266827 25.2441988,56.5126869 C25.6110981,56.4145632 25.9827623,56.3292112 26.3433084,56.2114627 L26.3433084,56.2114627 L26.6177681,56.2120858 C26.9389241,55.9096156 27.2584918,55.6102604 27.5923543,55.327415 C29.4303451,53.7695845 29.6130006,51.9423032 28.6339671,49.9816983 C27.1234856,46.957308 25.571708,43.9481813 23.9833994,40.9552528 C23.6435013,40.3144895 23.127301,39.7279279 22.5974412,39.1899608 C20.8112293,37.3760742 19.6250804,35.3114271 19.0933147,32.9492938 C18.8668219,31.9431365 19.0424888,31.0061331 19.7318148,30.178156 C20.2985233,29.4975202 20.9319408,28.860495 21.49992,28.1804822 C21.6622451,27.9867268 21.7800976,27.711669 21.7826389,27.4727455 C21.8032869,25.3725869 21.6822578,23.2665098 21.821076,21.1735158 C21.9849894,18.6964376 22.4017616,16.2368036 23.8150387,14.0195196 C24.5879096,12.8068353 25.5936267,11.8131382 27.2318082,11.5505405 C27.8188471,11.4564664 28.4290753,11.4729761 29.0288206,11.4412027 C29.3086806,11.426562 29.5173844,11.3929196 29.5761518,11.0655291 C29.7781847,9.9410004 30.4846644,9.07626586 31.4687804,8.37880886 C32.7696052,7.45738063 34.2838987,6.9870099 35.9204919,6.89324726 C38.8147079,6.72783874 41.7143242,6.6337646 44.6104462,6.49171886 C45.7400513,6.43627119 46.8664798,6.33129441 47.9944966,6.24999192 C48.5112188,6.21267821 48.9927,6.20787692 49.4433692,6.20696319 L49.8839319,6.20628512 C51.3193323,6.20127654 52.4287821,6.133445 53.3763217,4.94261049 C53.5974142,4.6644376 53.8054827,4.3778541 54.0916959,4 Z" id="Combined-Shape" fill="#C3CADE" mask="url(#mask-2)"></path>
                </g>
            </g>
        </g>
    </g>
</svg>